<mxfile host="app.diagrams.net" modified="2021-03-01T11:58:35.780Z" agent="5.0 (Windows NT 10.0; Win64; x64) AppleWebKit/537.36 (KHTML, like Gecko) Chrome/88.0.4324.190 Safari/537.36" etag="8umRnjJRKOX9EsqfL-HL" version="14.4.3" type="github" pages="2">
  <diagram id="e0D1zMPyesW4Om_QQEkk" name="Page-1">
    <mxGraphModel grid="1" gridSize="10" guides="1" tooltips="1" connect="1" arrows="1" page="1" fold="1" pageScale="1" pageWidth="1654" pageHeight="1169" math="0" shadow="0">
      <root>
        <mxCell id="0" />
        <mxCell id="1" parent="0" />
        <mxCell id="oiaefqIDaloyJVjSFk9S-1" value="alt" style="shape=umlFrame;whiteSpace=wrap;html=1;" vertex="1" parent="1">
          <mxGeometry x="30" y="380" width="810" height="410" as="geometry" />
        </mxCell>
        <mxCell id="oiaefqIDaloyJVjSFk9S-2" value="3 : EpithetoE()" style="html=1;verticalAlign=bottom;endArrow=block;entryX=0;entryY=0;" edge="1" parent="1" source="oiaefqIDaloyJVjSFk9S-5" target="oiaefqIDaloyJVjSFk9S-12">
          <mxGeometry relative="1" as="geometry">
            <mxPoint x="170" y="260" as="sourcePoint" />
          </mxGeometry>
        </mxCell>
        <mxCell id="oiaefqIDaloyJVjSFk9S-3" value="loop" style="shape=umlFrame;whiteSpace=wrap;html=1;" vertex="1" parent="1">
          <mxGeometry x="40" y="180" width="470" height="70" as="geometry" />
        </mxCell>
        <mxCell id="oiaefqIDaloyJVjSFk9S-4" value="t: Telepes" style="shape=umlLifeline;perimeter=lifelinePerimeter;container=1;collapsible=0;recursiveResize=0;rounded=0;shadow=0;strokeWidth=1;" vertex="1" parent="1">
          <mxGeometry x="120" y="20" width="100" height="820" as="geometry" />
        </mxCell>
        <mxCell id="oiaefqIDaloyJVjSFk9S-5" value="" style="html=1;points=[];perimeter=orthogonalPerimeter;" vertex="1" parent="oiaefqIDaloyJVjSFk9S-4">
          <mxGeometry x="45" y="110" width="10" height="680" as="geometry" />
        </mxCell>
        <mxCell id="oiaefqIDaloyJVjSFk9S-6" value="" style="html=1;points=[];perimeter=orthogonalPerimeter;" vertex="1" parent="oiaefqIDaloyJVjSFk9S-4">
          <mxGeometry x="54" y="720" width="10" height="40" as="geometry" />
        </mxCell>
        <mxCell id="oiaefqIDaloyJVjSFk9S-7" value="12 : Tetlen()" style="edgeStyle=orthogonalEdgeStyle;html=1;align=left;spacingLeft=2;endArrow=block;rounded=0;entryX=1;entryY=0;" edge="1" parent="oiaefqIDaloyJVjSFk9S-4" source="oiaefqIDaloyJVjSFk9S-5" target="oiaefqIDaloyJVjSFk9S-6">
          <mxGeometry relative="1" as="geometry">
            <mxPoint x="64" y="690" as="sourcePoint" />
            <Array as="points">
              <mxPoint x="95" y="690" />
              <mxPoint x="95" y="720" />
            </Array>
          </mxGeometry>
        </mxCell>
        <mxCell id="oiaefqIDaloyJVjSFk9S-8" value="" style="html=1;points=[];perimeter=orthogonalPerimeter;" vertex="1" parent="oiaefqIDaloyJVjSFk9S-4">
          <mxGeometry x="54" y="590" width="10" height="20.5" as="geometry" />
        </mxCell>
        <mxCell id="oiaefqIDaloyJVjSFk9S-9" value="" style="html=1;points=[];perimeter=orthogonalPerimeter;" vertex="1" parent="oiaefqIDaloyJVjSFk9S-4">
          <mxGeometry x="54" y="545" width="10" height="20" as="geometry" />
        </mxCell>
        <mxCell id="oiaefqIDaloyJVjSFk9S-11" value="e: TeleportEpito" style="shape=umlLifeline;perimeter=lifelinePerimeter;container=1;collapsible=0;recursiveResize=0;rounded=0;shadow=0;strokeWidth=1;" vertex="1" parent="1">
          <mxGeometry x="340" y="20" width="100" height="800" as="geometry" />
        </mxCell>
        <mxCell id="oiaefqIDaloyJVjSFk9S-12" value="" style="html=1;points=[];perimeter=orthogonalPerimeter;" vertex="1" parent="oiaefqIDaloyJVjSFk9S-11">
          <mxGeometry x="45" y="260" width="10" height="30" as="geometry" />
        </mxCell>
        <mxCell id="oiaefqIDaloyJVjSFk9S-13" value="" style="points=[];perimeter=orthogonalPerimeter;rounded=0;shadow=0;strokeWidth=1;" vertex="1" parent="oiaefqIDaloyJVjSFk9S-11">
          <mxGeometry x="45" y="180" width="10" height="30" as="geometry" />
        </mxCell>
        <mxCell id="oiaefqIDaloyJVjSFk9S-14" value="" style="html=1;points=[];perimeter=orthogonalPerimeter;" vertex="1" parent="oiaefqIDaloyJVjSFk9S-11">
          <mxGeometry x="45" y="380" width="10" height="250" as="geometry" />
        </mxCell>
        <mxCell id="oiaefqIDaloyJVjSFk9S-15" value="kell" style="verticalAlign=bottom;endArrow=open;dashed=1;endSize=8;exitX=0;exitY=0.95;shadow=0;strokeWidth=1;" edge="1" parent="1" source="oiaefqIDaloyJVjSFk9S-13" target="oiaefqIDaloyJVjSFk9S-5">
          <mxGeometry relative="1" as="geometry">
            <mxPoint x="275" y="236" as="targetPoint" />
          </mxGeometry>
        </mxCell>
        <mxCell id="oiaefqIDaloyJVjSFk9S-16" value="2 : KellE(ny)" style="verticalAlign=bottom;endArrow=block;entryX=0;entryY=0;shadow=0;strokeWidth=1;" edge="1" parent="1" source="oiaefqIDaloyJVjSFk9S-5" target="oiaefqIDaloyJVjSFk9S-13">
          <mxGeometry relative="1" as="geometry">
            <mxPoint x="275" y="160" as="sourcePoint" />
            <Array as="points" />
          </mxGeometry>
        </mxCell>
        <mxCell id="oiaefqIDaloyJVjSFk9S-17" value="[for all ny: Nyersanyag in rakter]" style="text;html=1;strokeColor=none;fillColor=none;align=center;verticalAlign=middle;whiteSpace=wrap;rounded=0;" vertex="1" parent="1">
          <mxGeometry x="40" y="220" width="130" height="20" as="geometry" />
        </mxCell>
        <mxCell id="oiaefqIDaloyJVjSFk9S-18" value="[epitheto]" style="text;html=1;strokeColor=none;fillColor=none;align=center;verticalAlign=middle;whiteSpace=wrap;rounded=0;" vertex="1" parent="1">
          <mxGeometry x="40" y="420" width="40" height="20" as="geometry" />
        </mxCell>
        <mxCell id="oiaefqIDaloyJVjSFk9S-19" value="epitheto" style="html=1;verticalAlign=bottom;endArrow=open;dashed=1;endSize=8;exitX=0;exitY=0.95;" edge="1" parent="1" source="oiaefqIDaloyJVjSFk9S-12" target="oiaefqIDaloyJVjSFk9S-5">
          <mxGeometry relative="1" as="geometry">
            <mxPoint x="170" y="279" as="targetPoint" />
          </mxGeometry>
        </mxCell>
        <mxCell id="oiaefqIDaloyJVjSFk9S-20" value="1 : Epit(e: TeleportEpito)" style="verticalAlign=bottom;startArrow=none;endArrow=block;startSize=8;shadow=0;strokeWidth=1;startFill=0;" edge="1" parent="1">
          <mxGeometry relative="1" as="geometry">
            <mxPoint x="20" y="120" as="sourcePoint" />
            <mxPoint x="165" y="120" as="targetPoint" />
          </mxGeometry>
        </mxCell>
        <mxCell id="oiaefqIDaloyJVjSFk9S-21" value="" style="html=1;verticalAlign=bottom;endArrow=open;dashed=1;endSize=8;" edge="1" parent="1" source="oiaefqIDaloyJVjSFk9S-5">
          <mxGeometry relative="1" as="geometry">
            <mxPoint x="166" y="759" as="sourcePoint" />
            <mxPoint x="30" y="810" as="targetPoint" />
            <Array as="points" />
          </mxGeometry>
        </mxCell>
        <mxCell id="oiaefqIDaloyJVjSFk9S-22" value="" style="endArrow=none;dashed=1;html=1;dashPattern=1 3;strokeWidth=2;" edge="1" parent="1">
          <mxGeometry width="50" height="50" relative="1" as="geometry">
            <mxPoint x="20" y="680" as="sourcePoint" />
            <mxPoint x="850" y="680" as="targetPoint" />
            <Array as="points" />
          </mxGeometry>
        </mxCell>
        <mxCell id="oiaefqIDaloyJVjSFk9S-23" value="[!epitheto]" style="text;html=1;strokeColor=none;fillColor=none;align=center;verticalAlign=middle;whiteSpace=wrap;rounded=0;" vertex="1" parent="1">
          <mxGeometry x="40" y="690" width="40" height="20" as="geometry" />
        </mxCell>
        <mxCell id="oiaefqIDaloyJVjSFk9S-24" value="5 : Letrejon(t)" style="html=1;verticalAlign=bottom;endArrow=block;entryX=0;entryY=0;" edge="1" parent="1" source="oiaefqIDaloyJVjSFk9S-5" target="oiaefqIDaloyJVjSFk9S-14">
          <mxGeometry relative="1" as="geometry">
            <mxPoint x="315" y="600" as="sourcePoint" />
          </mxGeometry>
        </mxCell>
        <mxCell id="oiaefqIDaloyJVjSFk9S-25" value="" style="html=1;verticalAlign=bottom;endArrow=open;dashed=1;endSize=8;exitX=0;exitY=0.95;" edge="1" parent="1" source="oiaefqIDaloyJVjSFk9S-14" target="oiaefqIDaloyJVjSFk9S-5">
          <mxGeometry relative="1" as="geometry">
            <mxPoint x="315" y="676" as="targetPoint" />
          </mxGeometry>
        </mxCell>
        <mxCell id="oiaefqIDaloyJVjSFk9S-26" value="11 : RakterbeRak(k2: Kapu)" style="html=1;verticalAlign=bottom;endArrow=block;" edge="1" parent="1" source="oiaefqIDaloyJVjSFk9S-14" target="oiaefqIDaloyJVjSFk9S-8">
          <mxGeometry relative="1" as="geometry">
            <mxPoint x="384" y="536.78" as="sourcePoint" />
            <mxPoint x="179" y="680.53" as="targetPoint" />
            <Array as="points" />
          </mxGeometry>
        </mxCell>
        <mxCell id="oiaefqIDaloyJVjSFk9S-27" value="" style="html=1;verticalAlign=bottom;endArrow=open;dashed=1;endSize=8;" edge="1" parent="1" target="oiaefqIDaloyJVjSFk9S-14">
          <mxGeometry relative="1" as="geometry">
            <mxPoint x="384" y="550.53" as="targetPoint" />
            <mxPoint x="179" y="630" as="sourcePoint" />
            <Array as="points" />
          </mxGeometry>
        </mxCell>
        <mxCell id="oiaefqIDaloyJVjSFk9S-28" value="k1:Teleportkapu" style="shape=umlLifeline;perimeter=lifelinePerimeter;whiteSpace=wrap;html=1;container=1;collapsible=0;recursiveResize=0;outlineConnect=0;" vertex="1" parent="1">
          <mxGeometry x="590" y="20" width="100" height="790" as="geometry" />
        </mxCell>
        <mxCell id="oiaefqIDaloyJVjSFk9S-38" value="" style="html=1;points=[];perimeter=orthogonalPerimeter;" vertex="1" parent="oiaefqIDaloyJVjSFk9S-28">
          <mxGeometry x="45" y="440" width="10" height="30" as="geometry" />
        </mxCell>
        <mxCell id="oiaefqIDaloyJVjSFk9S-29" value="k2:Teleportkapu" style="shape=umlLifeline;perimeter=lifelinePerimeter;whiteSpace=wrap;html=1;container=1;collapsible=0;recursiveResize=0;outlineConnect=0;" vertex="1" parent="1">
          <mxGeometry x="710" y="20" width="100" height="780" as="geometry" />
        </mxCell>
        <mxCell id="oiaefqIDaloyJVjSFk9S-30" value="10 : RakterbeRak(k1: Kapu)" style="html=1;verticalAlign=bottom;endArrow=block;" edge="1" parent="1" source="oiaefqIDaloyJVjSFk9S-14" target="oiaefqIDaloyJVjSFk9S-9">
          <mxGeometry relative="1" as="geometry">
            <mxPoint x="385" y="480" as="sourcePoint" />
            <mxPoint x="179" y="630.03" as="targetPoint" />
            <Array as="points" />
          </mxGeometry>
        </mxCell>
        <mxCell id="oiaefqIDaloyJVjSFk9S-31" value="" style="html=1;verticalAlign=bottom;endArrow=block;exitX=1.54;exitY=0.239;exitDx=0;exitDy=0;exitPerimeter=0;" edge="1" parent="1" source="oiaefqIDaloyJVjSFk9S-14" target="oiaefqIDaloyJVjSFk9S-38">
          <mxGeometry x="0.079" y="10" width="80" relative="1" as="geometry">
            <mxPoint x="400" y="420" as="sourcePoint" />
            <mxPoint x="480" y="420" as="targetPoint" />
            <mxPoint as="offset" />
          </mxGeometry>
        </mxCell>
        <mxCell id="oiaefqIDaloyJVjSFk9S-32" value="9 : SetPar(k1)" style="html=1;verticalAlign=bottom;endArrow=block;exitX=0.98;exitY=0.444;exitDx=0;exitDy=0;exitPerimeter=0;" edge="1" parent="1" source="oiaefqIDaloyJVjSFk9S-14" target="oiaefqIDaloyJVjSFk9S-40">
          <mxGeometry width="80" relative="1" as="geometry">
            <mxPoint x="400" y="440" as="sourcePoint" />
            <mxPoint x="659.5" y="440" as="targetPoint" />
          </mxGeometry>
        </mxCell>
        <mxCell id="oiaefqIDaloyJVjSFk9S-33" value="8 : SetPar(k2)" style="text;html=1;align=center;verticalAlign=middle;resizable=0;points=[];autosize=1;" vertex="1" parent="1">
          <mxGeometry x="480" y="440" width="90" height="20" as="geometry" />
        </mxCell>
        <mxCell id="oiaefqIDaloyJVjSFk9S-34" value="4 : Reset()" style="html=1;verticalAlign=bottom;endArrow=block;exitX=0.55;exitY=0.289;exitDx=0;exitDy=0;exitPerimeter=0;entryX=1;entryY=0.733;entryDx=0;entryDy=0;entryPerimeter=0;rounded=0;" edge="1" parent="1">
          <mxGeometry relative="1" as="geometry">
            <mxPoint x="395" y="289.9999999999999" as="sourcePoint" />
            <mxPoint x="395" y="302.35" as="targetPoint" />
            <Array as="points">
              <mxPoint x="450" y="290" />
              <mxPoint x="450" y="302" />
            </Array>
          </mxGeometry>
        </mxCell>
        <mxCell id="oiaefqIDaloyJVjSFk9S-35" value="" style="html=1;verticalAlign=bottom;endArrow=block;" edge="1" parent="1" source="oiaefqIDaloyJVjSFk9S-14">
          <mxGeometry x="0.079" y="10" width="80" relative="1" as="geometry">
            <mxPoint x="400" y="411" as="sourcePoint" />
            <mxPoint x="646.5" y="411" as="targetPoint" />
            <mxPoint as="offset" />
          </mxGeometry>
        </mxCell>
        <mxCell id="oiaefqIDaloyJVjSFk9S-36" value="7 : &amp;lt;&amp;lt;create&amp;gt;&amp;gt;" style="html=1;verticalAlign=bottom;endArrow=block;" edge="1" parent="1" source="oiaefqIDaloyJVjSFk9S-14">
          <mxGeometry x="0.0262" width="80" relative="1" as="geometry">
            <mxPoint x="404" y="429" as="sourcePoint" />
            <mxPoint x="766.5" y="429" as="targetPoint" />
            <mxPoint as="offset" />
          </mxGeometry>
        </mxCell>
        <mxCell id="oiaefqIDaloyJVjSFk9S-37" value="6 : &amp;lt;&amp;lt;create&amp;gt;&amp;gt;" style="text;html=1;align=center;verticalAlign=middle;resizable=0;points=[];autosize=1;" vertex="1" parent="1">
          <mxGeometry x="527" y="392.75" width="90" height="20" as="geometry" />
        </mxCell>
        <mxCell id="oiaefqIDaloyJVjSFk9S-39" value="" style="html=1;verticalAlign=bottom;endArrow=open;dashed=1;endSize=8;exitX=-0.1;exitY=0.98;exitDx=0;exitDy=0;exitPerimeter=0;" edge="1" parent="1" source="oiaefqIDaloyJVjSFk9S-38" target="oiaefqIDaloyJVjSFk9S-14">
          <mxGeometry relative="1" as="geometry">
            <mxPoint x="410" y="460" as="sourcePoint" />
            <mxPoint x="330" y="460" as="targetPoint" />
          </mxGeometry>
        </mxCell>
        <mxCell id="oiaefqIDaloyJVjSFk9S-40" value="" style="html=1;points=[];perimeter=orthogonalPerimeter;" vertex="1" parent="1">
          <mxGeometry x="755" y="510" width="10" height="30" as="geometry" />
        </mxCell>
        <mxCell id="oiaefqIDaloyJVjSFk9S-41" value="" style="html=1;verticalAlign=bottom;endArrow=open;dashed=1;endSize=8;entryX=0.9;entryY=0.562;entryDx=0;entryDy=0;entryPerimeter=0;" edge="1" parent="1" source="oiaefqIDaloyJVjSFk9S-40" target="oiaefqIDaloyJVjSFk9S-14">
          <mxGeometry relative="1" as="geometry">
            <mxPoint x="410" y="460" as="sourcePoint" />
            <mxPoint x="330" y="460" as="targetPoint" />
          </mxGeometry>
        </mxCell>
        <mxCell id="oiaefqIDaloyJVjSFk9S-10" value="" style="html=1;verticalAlign=bottom;endArrow=open;dashed=1;endSize=8;exitX=0.88;exitY=0.97;exitDx=0;exitDy=0;exitPerimeter=0;" edge="1" parent="1" source="oiaefqIDaloyJVjSFk9S-9" target="oiaefqIDaloyJVjSFk9S-14">
          <mxGeometry relative="1" as="geometry">
            <mxPoint x="384" y="558" as="targetPoint" />
            <mxPoint x="199" y="498.03" as="sourcePoint" />
            <Array as="points" />
          </mxGeometry>
        </mxCell>
      </root>
    </mxGraphModel>
  </diagram>
  <diagram id="UfEcpHCbDVrySbEqps7D" name="Page-2">
    <mxGraphModel dx="868" dy="450" grid="1" gridSize="10" guides="1" tooltips="1" connect="1" arrows="1" fold="1" page="1" pageScale="1" pageWidth="1654" pageHeight="1169" math="0" shadow="0">
      <root>
        <mxCell id="_W0hZLIVAOP-aF1G-cph-0" />
        <mxCell id="_W0hZLIVAOP-aF1G-cph-1" parent="_W0hZLIVAOP-aF1G-cph-0" />
        <mxCell id="_W0hZLIVAOP-aF1G-cph-2" value="alt" style="shape=umlFrame;whiteSpace=wrap;html=1;" vertex="1" parent="_W0hZLIVAOP-aF1G-cph-1">
          <mxGeometry x="30" y="380" width="490" height="330" as="geometry" />
        </mxCell>
        <mxCell id="_W0hZLIVAOP-aF1G-cph-3" value="4 : EpithetoE()" style="html=1;verticalAlign=bottom;endArrow=block;entryX=0;entryY=0;" edge="1" parent="_W0hZLIVAOP-aF1G-cph-1" source="_W0hZLIVAOP-aF1G-cph-6" target="_W0hZLIVAOP-aF1G-cph-11">
          <mxGeometry relative="1" as="geometry">
            <mxPoint x="170" y="260" as="sourcePoint" />
          </mxGeometry>
        </mxCell>
        <mxCell id="_W0hZLIVAOP-aF1G-cph-4" value="loop" style="shape=umlFrame;whiteSpace=wrap;html=1;" vertex="1" parent="_W0hZLIVAOP-aF1G-cph-1">
          <mxGeometry x="40" y="180" width="470" height="70" as="geometry" />
        </mxCell>
        <mxCell id="_W0hZLIVAOP-aF1G-cph-5" value="t: Telepes" style="shape=umlLifeline;perimeter=lifelinePerimeter;container=1;collapsible=0;recursiveResize=0;rounded=0;shadow=0;strokeWidth=1;" vertex="1" parent="_W0hZLIVAOP-aF1G-cph-1">
          <mxGeometry x="120" y="20" width="100" height="820" as="geometry" />
        </mxCell>
        <mxCell id="_W0hZLIVAOP-aF1G-cph-6" value="" style="html=1;points=[];perimeter=orthogonalPerimeter;" vertex="1" parent="_W0hZLIVAOP-aF1G-cph-5">
          <mxGeometry x="45" y="110" width="10" height="640" as="geometry" />
        </mxCell>
        <mxCell id="_W0hZLIVAOP-aF1G-cph-7" value="" style="html=1;points=[];perimeter=orthogonalPerimeter;" vertex="1" parent="_W0hZLIVAOP-aF1G-cph-5">
          <mxGeometry x="55" y="640" width="10" height="40" as="geometry" />
        </mxCell>
        <mxCell id="_W0hZLIVAOP-aF1G-cph-8" value="9 : Tetlen()" style="edgeStyle=orthogonalEdgeStyle;html=1;align=left;spacingLeft=2;endArrow=block;rounded=0;entryX=1;entryY=0;" edge="1" parent="_W0hZLIVAOP-aF1G-cph-5" target="_W0hZLIVAOP-aF1G-cph-7">
          <mxGeometry relative="1" as="geometry">
            <mxPoint x="60" y="590" as="sourcePoint" />
            <Array as="points">
              <mxPoint x="95" y="590" />
              <mxPoint x="95" y="640" />
            </Array>
          </mxGeometry>
        </mxCell>
        <mxCell id="_W0hZLIVAOP-aF1G-cph-9" value="" style="html=1;points=[];perimeter=orthogonalPerimeter;" vertex="1" parent="_W0hZLIVAOP-aF1G-cph-5">
          <mxGeometry x="54" y="510.03" width="10" height="20.5" as="geometry" />
        </mxCell>
        <mxCell id="_W0hZLIVAOP-aF1G-cph-33" value="" style="html=1;points=[];perimeter=orthogonalPerimeter;" vertex="1" parent="_W0hZLIVAOP-aF1G-cph-5">
          <mxGeometry x="54" y="460.03" width="10" height="20" as="geometry" />
        </mxCell>
        <mxCell id="_W0hZLIVAOP-aF1G-cph-35" value="" style="html=1;verticalAlign=bottom;endArrow=open;dashed=1;endSize=8;" edge="1" parent="_W0hZLIVAOP-aF1G-cph-5" source="_W0hZLIVAOP-aF1G-cph-33">
          <mxGeometry relative="1" as="geometry">
            <mxPoint x="264" y="480.03" as="targetPoint" />
            <mxPoint x="79" y="478.03" as="sourcePoint" />
            <Array as="points">
              <mxPoint x="139" y="480.03" />
            </Array>
          </mxGeometry>
        </mxCell>
        <mxCell id="_W0hZLIVAOP-aF1G-cph-10" value="e: TeleportBOM" style="shape=umlLifeline;perimeter=lifelinePerimeter;container=1;collapsible=0;recursiveResize=0;rounded=0;shadow=0;strokeWidth=1;" vertex="1" parent="_W0hZLIVAOP-aF1G-cph-1">
          <mxGeometry x="340" y="20" width="100" height="750" as="geometry" />
        </mxCell>
        <mxCell id="_W0hZLIVAOP-aF1G-cph-11" value="" style="html=1;points=[];perimeter=orthogonalPerimeter;" vertex="1" parent="_W0hZLIVAOP-aF1G-cph-10">
          <mxGeometry x="45" y="260" width="10" height="30" as="geometry" />
        </mxCell>
        <mxCell id="_W0hZLIVAOP-aF1G-cph-12" value="" style="points=[];perimeter=orthogonalPerimeter;rounded=0;shadow=0;strokeWidth=1;" vertex="1" parent="_W0hZLIVAOP-aF1G-cph-10">
          <mxGeometry x="45" y="180" width="10" height="30" as="geometry" />
        </mxCell>
        <mxCell id="_W0hZLIVAOP-aF1G-cph-15" value="" style="html=1;points=[];perimeter=orthogonalPerimeter;" vertex="1" parent="_W0hZLIVAOP-aF1G-cph-10">
          <mxGeometry x="45" y="380" width="10" height="190" as="geometry" />
        </mxCell>
        <mxCell id="_W0hZLIVAOP-aF1G-cph-16" value="kell" style="verticalAlign=bottom;endArrow=open;dashed=1;endSize=8;exitX=0;exitY=0.95;shadow=0;strokeWidth=1;" edge="1" parent="_W0hZLIVAOP-aF1G-cph-1" source="_W0hZLIVAOP-aF1G-cph-12" target="_W0hZLIVAOP-aF1G-cph-6">
          <mxGeometry relative="1" as="geometry">
            <mxPoint x="275" y="236" as="targetPoint" />
          </mxGeometry>
        </mxCell>
        <mxCell id="_W0hZLIVAOP-aF1G-cph-17" value="3 : KellE(ny)" style="verticalAlign=bottom;endArrow=block;entryX=0;entryY=0;shadow=0;strokeWidth=1;" edge="1" parent="_W0hZLIVAOP-aF1G-cph-1" source="_W0hZLIVAOP-aF1G-cph-6" target="_W0hZLIVAOP-aF1G-cph-12">
          <mxGeometry relative="1" as="geometry">
            <mxPoint x="275" y="160" as="sourcePoint" />
            <Array as="points" />
          </mxGeometry>
        </mxCell>
        <mxCell id="_W0hZLIVAOP-aF1G-cph-18" value="[for all ny: Nyersanyag in rakter]" style="text;html=1;strokeColor=none;fillColor=none;align=center;verticalAlign=middle;whiteSpace=wrap;rounded=0;" vertex="1" parent="_W0hZLIVAOP-aF1G-cph-1">
          <mxGeometry x="40" y="220" width="130" height="20" as="geometry" />
        </mxCell>
        <mxCell id="_W0hZLIVAOP-aF1G-cph-19" value="[epitheto]" style="text;html=1;strokeColor=none;fillColor=none;align=center;verticalAlign=middle;whiteSpace=wrap;rounded=0;" vertex="1" parent="_W0hZLIVAOP-aF1G-cph-1">
          <mxGeometry x="40" y="420" width="40" height="20" as="geometry" />
        </mxCell>
        <mxCell id="_W0hZLIVAOP-aF1G-cph-20" value="epitheto" style="html=1;verticalAlign=bottom;endArrow=open;dashed=1;endSize=8;exitX=0;exitY=0.95;" edge="1" parent="_W0hZLIVAOP-aF1G-cph-1" source="_W0hZLIVAOP-aF1G-cph-11" target="_W0hZLIVAOP-aF1G-cph-6">
          <mxGeometry relative="1" as="geometry">
            <mxPoint x="170" y="279" as="targetPoint" />
          </mxGeometry>
        </mxCell>
        <mxCell id="_W0hZLIVAOP-aF1G-cph-23" value="1 : Epit(e: TeleportBOM)" style="verticalAlign=bottom;startArrow=none;endArrow=block;startSize=8;shadow=0;strokeWidth=1;startFill=0;" edge="1" parent="_W0hZLIVAOP-aF1G-cph-1">
          <mxGeometry relative="1" as="geometry">
            <mxPoint x="20" y="120" as="sourcePoint" />
            <mxPoint x="165" y="120" as="targetPoint" />
          </mxGeometry>
        </mxCell>
        <mxCell id="_W0hZLIVAOP-aF1G-cph-26" value="" style="html=1;verticalAlign=bottom;endArrow=open;dashed=1;endSize=8;" edge="1" parent="_W0hZLIVAOP-aF1G-cph-1">
          <mxGeometry relative="1" as="geometry">
            <mxPoint x="166" y="759" as="sourcePoint" />
            <mxPoint x="30" y="759" as="targetPoint" />
            <Array as="points">
              <mxPoint x="110" y="759" />
              <mxPoint x="80" y="759" />
              <mxPoint x="50" y="759" />
            </Array>
          </mxGeometry>
        </mxCell>
        <mxCell id="_W0hZLIVAOP-aF1G-cph-27" value="" style="endArrow=none;dashed=1;html=1;dashPattern=1 3;strokeWidth=2;entryX=0.998;entryY=0.667;entryDx=0;entryDy=0;entryPerimeter=0;exitX=-0.004;exitY=0.652;exitDx=0;exitDy=0;exitPerimeter=0;" edge="1" parent="_W0hZLIVAOP-aF1G-cph-1" source="_W0hZLIVAOP-aF1G-cph-2" target="_W0hZLIVAOP-aF1G-cph-2">
          <mxGeometry width="50" height="50" relative="1" as="geometry">
            <mxPoint x="30" y="560" as="sourcePoint" />
            <mxPoint x="520" y="560" as="targetPoint" />
          </mxGeometry>
        </mxCell>
        <mxCell id="_W0hZLIVAOP-aF1G-cph-28" value="[!epitheto]" style="text;html=1;strokeColor=none;fillColor=none;align=center;verticalAlign=middle;whiteSpace=wrap;rounded=0;" vertex="1" parent="_W0hZLIVAOP-aF1G-cph-1">
          <mxGeometry x="40" y="620" width="40" height="20" as="geometry" />
        </mxCell>
        <mxCell id="_W0hZLIVAOP-aF1G-cph-29" value="8 : Letrejon(t)" style="html=1;verticalAlign=bottom;endArrow=block;entryX=0;entryY=0;" edge="1" parent="_W0hZLIVAOP-aF1G-cph-1" source="_W0hZLIVAOP-aF1G-cph-6" target="_W0hZLIVAOP-aF1G-cph-15">
          <mxGeometry relative="1" as="geometry">
            <mxPoint x="315" y="600" as="sourcePoint" />
          </mxGeometry>
        </mxCell>
        <mxCell id="_W0hZLIVAOP-aF1G-cph-30" value="" style="html=1;verticalAlign=bottom;endArrow=open;dashed=1;endSize=8;exitX=0;exitY=0.95;" edge="1" parent="_W0hZLIVAOP-aF1G-cph-1" source="_W0hZLIVAOP-aF1G-cph-15" target="_W0hZLIVAOP-aF1G-cph-6">
          <mxGeometry relative="1" as="geometry">
            <mxPoint x="315" y="676" as="targetPoint" />
          </mxGeometry>
        </mxCell>
        <mxCell id="_W0hZLIVAOP-aF1G-cph-31" value="9 : RakterbeRak(k2: Kapu)" style="html=1;verticalAlign=bottom;endArrow=block;exitX=0.45;exitY=0.649;exitDx=0;exitDy=0;exitPerimeter=0;" edge="1" parent="_W0hZLIVAOP-aF1G-cph-1" target="_W0hZLIVAOP-aF1G-cph-9">
          <mxGeometry relative="1" as="geometry">
            <mxPoint x="384" y="536.78" as="sourcePoint" />
            <mxPoint x="179" y="680.53" as="targetPoint" />
            <Array as="points" />
          </mxGeometry>
        </mxCell>
        <mxCell id="_W0hZLIVAOP-aF1G-cph-32" value="" style="html=1;verticalAlign=bottom;endArrow=open;dashed=1;endSize=8;" edge="1" parent="_W0hZLIVAOP-aF1G-cph-1" source="_W0hZLIVAOP-aF1G-cph-9">
          <mxGeometry relative="1" as="geometry">
            <mxPoint x="384" y="550.53" as="targetPoint" />
            <mxPoint x="199" y="548.53" as="sourcePoint" />
            <Array as="points">
              <mxPoint x="259" y="550.53" />
            </Array>
          </mxGeometry>
        </mxCell>
        <mxCell id="_W0hZLIVAOP-aF1G-cph-36" value="k1:Teleportkapu" style="shape=umlLifeline;perimeter=lifelinePerimeter;whiteSpace=wrap;html=1;container=1;collapsible=0;recursiveResize=0;outlineConnect=0;" vertex="1" parent="_W0hZLIVAOP-aF1G-cph-1">
          <mxGeometry x="590" y="20" width="100" height="720" as="geometry" />
        </mxCell>
        <mxCell id="_W0hZLIVAOP-aF1G-cph-37" value="k2:Teleportkapu" style="shape=umlLifeline;perimeter=lifelinePerimeter;whiteSpace=wrap;html=1;container=1;collapsible=0;recursiveResize=0;outlineConnect=0;" vertex="1" parent="_W0hZLIVAOP-aF1G-cph-1">
          <mxGeometry x="710" y="20" width="100" height="730" as="geometry" />
        </mxCell>
        <mxCell id="_W0hZLIVAOP-aF1G-cph-34" value="9 : RakterbeRak(k1: Kapu)" style="html=1;verticalAlign=bottom;endArrow=block;exitX=0.1;exitY=0.263;exitDx=0;exitDy=0;exitPerimeter=0;" edge="1" parent="_W0hZLIVAOP-aF1G-cph-1" target="_W0hZLIVAOP-aF1G-cph-33">
          <mxGeometry relative="1" as="geometry">
            <mxPoint x="385" y="480" as="sourcePoint" />
            <mxPoint x="179" y="630.03" as="targetPoint" />
            <Array as="points">
              <mxPoint x="349" y="480.03" />
            </Array>
          </mxGeometry>
        </mxCell>
        <mxCell id="_W0hZLIVAOP-aF1G-cph-38" value="" style="html=1;verticalAlign=bottom;endArrow=block;exitX=0.53;exitY=0.571;exitDx=0;exitDy=0;exitPerimeter=0;" edge="1" parent="_W0hZLIVAOP-aF1G-cph-1" source="_W0hZLIVAOP-aF1G-cph-10" target="_W0hZLIVAOP-aF1G-cph-36">
          <mxGeometry x="0.079" y="10" width="80" relative="1" as="geometry">
            <mxPoint x="400" y="420" as="sourcePoint" />
            <mxPoint x="480" y="420" as="targetPoint" />
            <mxPoint as="offset" />
          </mxGeometry>
        </mxCell>
        <mxCell id="_W0hZLIVAOP-aF1G-cph-39" value="SetPar(k1)" style="html=1;verticalAlign=bottom;endArrow=block;exitX=0.57;exitY=0.595;exitDx=0;exitDy=0;exitPerimeter=0;" edge="1" parent="_W0hZLIVAOP-aF1G-cph-1" source="_W0hZLIVAOP-aF1G-cph-10" target="_W0hZLIVAOP-aF1G-cph-37">
          <mxGeometry width="80" relative="1" as="geometry">
            <mxPoint x="400" y="440" as="sourcePoint" />
            <mxPoint x="659.5" y="440" as="targetPoint" />
          </mxGeometry>
        </mxCell>
        <mxCell id="_W0hZLIVAOP-aF1G-cph-40" value="SetPar(k2)" style="text;html=1;align=center;verticalAlign=middle;resizable=0;points=[];autosize=1;" vertex="1" parent="_W0hZLIVAOP-aF1G-cph-1">
          <mxGeometry x="530" y="430" width="70" height="20" as="geometry" />
        </mxCell>
        <mxCell id="_W0hZLIVAOP-aF1G-cph-41" value="5 : Reset()" style="html=1;verticalAlign=bottom;endArrow=block;exitX=0.55;exitY=0.289;exitDx=0;exitDy=0;exitPerimeter=0;entryX=1;entryY=0.733;entryDx=0;entryDy=0;entryPerimeter=0;curved=1;" edge="1" parent="_W0hZLIVAOP-aF1G-cph-1">
          <mxGeometry relative="1" as="geometry">
            <mxPoint x="395" y="289.9999999999999" as="sourcePoint" />
            <mxPoint x="395" y="302.35" as="targetPoint" />
            <Array as="points">
              <mxPoint x="470" y="295.36" />
            </Array>
          </mxGeometry>
        </mxCell>
        <mxCell id="_W0hZLIVAOP-aF1G-cph-44" value="" style="html=1;verticalAlign=bottom;endArrow=block;exitX=0.53;exitY=0.571;exitDx=0;exitDy=0;exitPerimeter=0;" edge="1" parent="_W0hZLIVAOP-aF1G-cph-1">
          <mxGeometry x="0.079" y="10" width="80" relative="1" as="geometry">
            <mxPoint x="400" y="411" as="sourcePoint" />
            <mxPoint x="646.5" y="411" as="targetPoint" />
            <mxPoint as="offset" />
          </mxGeometry>
        </mxCell>
        <mxCell id="_W0hZLIVAOP-aF1G-cph-45" value="&amp;lt;&amp;lt;create&amp;gt;&amp;gt;" style="html=1;verticalAlign=bottom;endArrow=block;exitX=0.57;exitY=0.595;exitDx=0;exitDy=0;exitPerimeter=0;" edge="1" parent="_W0hZLIVAOP-aF1G-cph-1">
          <mxGeometry x="0.0262" width="80" relative="1" as="geometry">
            <mxPoint x="404" y="429" as="sourcePoint" />
            <mxPoint x="766.5" y="429" as="targetPoint" />
            <mxPoint as="offset" />
          </mxGeometry>
        </mxCell>
        <mxCell id="_W0hZLIVAOP-aF1G-cph-46" value="&amp;lt;&amp;lt;create&amp;gt;&amp;gt;" style="text;html=1;align=center;verticalAlign=middle;resizable=0;points=[];autosize=1;" vertex="1" parent="_W0hZLIVAOP-aF1G-cph-1">
          <mxGeometry x="532" y="392.75" width="80" height="20" as="geometry" />
        </mxCell>
        <mxCell id="_W0hZLIVAOP-aF1G-cph-47" value="" style="ellipse;html=1;shape=endState;fillColor=#000000;strokeColor=#ff0000;" vertex="1" parent="_W0hZLIVAOP-aF1G-cph-1">
          <mxGeometry x="60" y="50" width="30" height="30" as="geometry" />
        </mxCell>
      </root>
    </mxGraphModel>
  </diagram>
</mxfile>
